name processed_emg_signals												
nRows=144												
nColumns=7												
 												
endheader												
time	RGLTMED	RRF	RADDLONG	RST	RTA	RGM						
1.852	0.086687125	0.04869643	0.03369484	0.034303513	0.127128549	0.226787862						
1.853	0.086594785	0.047908135	0.033525823	0.034307245	0.127011307	0.227274041						
1.854	0.086500952	0.047136954	0.0333578	0.034321453	0.126958786	0.227704875						
1.855	0.086405294	0.046382851	0.033190807	0.034345658	0.126967975	0.228080565						
1.856	0.086307486	0.045645774	0.033024885	0.034379379	0.127035869	0.228401373						
1.857	0.086207206	0.044925664	0.032860075	0.034422134	0.127159476	0.228667628						
1.858	0.086104139	0.04422245	0.032696418	0.034473443	0.127335818	0.228879724						
1.859	0.085997977	0.043536052	0.032533959	0.034532824	0.127561934	0.229038115						
1.86	0.085888418	0.042866381	0.032372743	0.034599799	0.127834884	0.22914332						
1.861	0.08577517	0.042213335	0.032212814	0.03467389	0.128151754	0.229195919						
1.862	0.085657945	0.04157681	0.032054219	0.034754623	0.128509656	0.229196552						
1.863	0.085536468	0.040956686	0.031897004	0.034841527	0.128905729	0.229145917						
1.864	0.085410471	0.040352841	0.031741218	0.034934135	0.12933715	0.229044773						
1.865	0.085279696	0.039765142	0.031586908	0.035031988	0.129801127	0.228893934						
1.866	0.085143895	0.039193448	0.031434122	0.035134628	0.13029491	0.22869427						
1.867	0.08500283	0.038637614	0.031282907	0.035241608	0.130815788	0.228446707						
1.868	0.084856275	0.038097484	0.031133313	0.035352486	0.131361095	0.228152224						
1.869	0.084704014	0.037572899	0.030985387	0.035466828	0.13192821	0.227811851						
1.87	0.084545844	0.037063692	0.030839176	0.035584209	0.132514562	0.22742667						
1.871	0.084381573	0.03656969	0.030694728	0.035704216	0.133117631	0.226997811						
1.872	0.08421102	0.036090715	0.030552089	0.035826442	0.133734947	0.226526455						
1.873	0.084034019	0.035626584	0.030411306	0.035950493	0.134364099	0.226013827						
1.874	0.083850416	0.035177108	0.030272424	0.036075988	0.135002732	0.225461198						
1.875	0.08366007	0.034742093	0.030135487	0.036202555	0.135648547	0.224869883						
1.876	0.083462853	0.034321341	0.03000054	0.036329839	0.13629931	0.224241239						
1.877	0.083258652	0.033914651	0.029867624	0.036457495	0.136952844	0.223576664						
1.878	0.083047366	0.033521817	0.029736781	0.036585195	0.137607039	0.222877594						
1.879	0.08282891	0.033142628	0.029608051	0.036712625	0.138259848	0.222145503						
1.88	0.082603212	0.032776872	0.029481474	0.036839486	0.13890929	0.221381902						
1.881	0.082370216	0.032424332	0.029357087	0.036965495	0.139553449	0.220588333						
1.882	0.08212988	0.032084789	0.029234927	0.037090389	0.140190479	0.219766374						
1.883	0.081882176	0.03175802	0.029115028	0.037213918	0.140818599	0.21891763						
1.884	0.081627092	0.031443802	0.028997424	0.037335852	0.141436098	0.218043736						
1.885	0.081364631	0.031141906	0.028882146	0.037455982	0.142041333	0.217146353						
1.886	0.081094812	0.030852105	0.028769225	0.037574113	0.142632732	0.216227167						
1.887	0.080817668	0.030574168	0.02865869	0.037690074	0.143208791	0.215287887						
1.888	0.080533248	0.030307861	0.028550566	0.037803711	0.143768073	0.214330241						
1.889	0.080241616	0.030052951	0.028444879	0.037914893	0.144309214	0.213355976						
1.89	0.079942852	0.029809203	0.028341653	0.038023507	0.144830917	0.212366855						
1.891	0.079637053	0.02957638	0.028240909	0.038129465	0.145331954	0.211364656						
1.892	0.079324327	0.029354243	0.028142667	0.038232698	0.145811165	0.210351166						
1.893	0.079004803	0.029142555	0.028046945	0.038333159	0.146267458	0.209328182						
1.894	0.07867862	0.028941077	0.027953758	0.038430825	0.146699808	0.208297509						
1.895	0.078345936	0.028749568	0.027863122	0.038525693	0.147107257	0.207260954						
1.896	0.078006923	0.028567788	0.027775048	0.038617787	0.14748891	0.206220326						
1.897	0.077661768	0.028395497	0.027689549	0.03870715	0.147843942	0.205177436						
1.898	0.07731067	0.028232454	0.027606631	0.03879385	0.148171586	0.204134087						
1.899	0.076953848	0.028078418	0.027526303	0.038877978	0.148471143	0.203092079						
1.9	0.07659153	0.027933149	0.02744857	0.038959649	0.148741971	0.202053201						
1.901	0.076223961	0.027796405	0.027373435	0.039039	0.148983492	0.201019231						
1.902	0.075851399	0.027667946	0.027300901	0.039116194	0.149195186	0.199991935						
1.903	0.075474115	0.027547533	0.027230967	0.039191414	0.149376593	0.198973058						
1.904	0.075092393	0.027434925	0.027163631	0.039264868	0.149527306	0.197964329						
1.905	0.07470653	0.027329884	0.027098891	0.03933679	0.149646976	0.196967452						
1.906	0.074316836	0.027232173	0.027036742	0.039407432	0.14973531	0.195984108						
1.907	0.07392363	0.027141552	0.026977178	0.039477073	0.149792064	0.195015949						
1.908	0.073527246	0.027057786	0.02692019	0.039546011	0.149817047	0.194064597						
1.909	0.073128025	0.02698064	0.026865769	0.039614571	0.149810119	0.193131641						
1.91	0.072726322	0.026909878	0.026813904	0.039683094	0.149771186	0.192218635						
1.911	0.072322498	0.026845269	0.026764583	0.039751949	0.149700203	0.191327096						
1.912	0.071916926	0.026786578	0.026717792	0.039821521	0.149597169	0.1904585						
1.913	0.071509985	0.026733577	0.026673517	0.039892218	0.149462128	0.18961428						
1.914	0.071102064	0.026686036	0.026631742	0.039964468	0.149295167	0.188795825						
1.915	0.070693558	0.026643727	0.026592449	0.040038719	0.149096412	0.188004477						
1.916	0.070284869	0.026606424	0.026555619	0.040115437	0.148866031	0.18724153						
1.917	0.069876404	0.026573903	0.026521233	0.040195107	0.148604228	0.186508224						
1.918	0.069468574	0.026545943	0.026489271	0.040278232	0.148311244	0.185805749						
1.919	0.069061798	0.026522323	0.026459711	0.040365331	0.147987358	0.185135241						
1.92	0.068656494	0.026502824	0.02643253	0.040456942	0.14763288	0.184497776						
1.921	0.068253085	0.02648723	0.026407706	0.040553615	0.147248154	0.183894376						
1.922	0.067851996	0.026475329	0.026385213	0.040655917	0.146833554	0.183326002						
1.923	0.067453652	0.026466909	0.026365027	0.040764428	0.146389484	0.182793554						
1.924	0.067058479	0.026461761	0.026347123	0.040879741	0.145916379	0.182297872						
1.925	0.066666902	0.026459679	0.026331473	0.041002461	0.145414699	0.181839732						
1.926	0.066279344	0.02646046	0.026318051	0.041133206	0.14488493	0.181419846						
1.927	0.065896227	0.026463903	0.026306829	0.041272601	0.144327584	0.181038862						
1.928	0.065517969	0.026469812	0.02629778	0.041421281	0.143743196	0.180697363						
1.929	0.065144984	0.026477991	0.026290874	0.041579891	0.143132325	0.180395865						
1.93	0.064777681	0.02648825	0.026286082	0.041749082	0.14249555	0.180134821						
1.931	0.064416465	0.0265004	0.026283376	0.041929508	0.141833471	0.179914614						
1.932	0.064061732	0.026514259	0.026282725	0.042121833	0.141146706	0.179735562						
1.933	0.063713872	0.026529644	0.026284099	0.04232672	0.140435892	0.179597917						
1.934	0.063373269	0.026546379	0.026287469	0.042544836	0.139701685	0.179501865						
1.935	0.063040294	0.02656429	0.026292803	0.04277685	0.138944755	0.179447524						
1.936	0.062715312	0.026583209	0.02630007	0.04302343	0.138165787	0.179434948						
1.937	0.062398676	0.026602968	0.026309241	0.043285243	0.13736548	0.179464126						
1.938	0.06209073	0.026623407	0.026320284	0.043562953	0.136544548	0.179534982						
1.939	0.061791803	0.026644368	0.026333167	0.043857221	0.135703715	0.179647375						
1.94	0.061502216	0.026665699	0.02634786	0.044168702	0.134843718	0.179801104						
1.941	0.061222273	0.026687249	0.02636433	0.044498044	0.133965302	0.179995904						
1.942	0.060952268	0.026708875	0.026382547	0.044845888	0.133069225	0.180231451						
1.943	0.060692477	0.026730437	0.026402479	0.045212867	0.132156249	0.18050736						
1.944	0.060443166	0.026751799	0.026424094	0.045599601	0.131227147	0.180823189						
1.945	0.060204583	0.026772829	0.02644736	0.0460067	0.130282698	0.181178441						
1.946	0.059976961	0.026793403	0.026472244	0.04643476	0.129323686	0.181572562						
1.947	0.059760517	0.026813398	0.026498715	0.046884363	0.1283509	0.182004947						
1.948	0.059555451	0.026832697	0.02652674	0.047356075	0.127365136	0.182474938						
1.949	0.059361949	0.026851189	0.026556286	0.047850446	0.12636719	0.18298183						
1.95	0.059180176	0.026868767	0.02658732	0.048368004	0.125357864	0.183524869						
1.951	0.059010283	0.026885328	0.026619808	0.048909263	0.124337959	0.184103258						
1.952	0.058852402	0.026900776	0.026653717	0.049474712	0.12330828	0.184716157						
1.953	0.058706646	0.026915019	0.026689012	0.050064818	0.122269632	0.185362686						
1.954	0.058573112	0.026927969	0.026725658	0.050680026	0.121222821	0.186041925						
1.955	0.058451879	0.026939546	0.026763621	0.051320758	0.120168651	0.186752923						
1.956	0.058343007	0.026949672	0.026802865	0.051987406	0.119107926	0.187494694						
1.957	0.058246537	0.026958276	0.026843352	0.052680339	0.118041448	0.188266222						
1.958	0.058162493	0.026965293	0.026885046	0.053399897	0.116970018	0.189066466						
1.959	0.058090881	0.026970661	0.02692791	0.054146391	0.115894432	0.189894359						
1.96	0.058031688	0.026974325	0.026971904	0.054920101	0.114815486	0.190748813						
1.961	0.057984882	0.026976235	0.027016989	0.055721279	0.11373397	0.191628722						
1.962	0.057950415	0.026976345	0.027063125	0.056550142	0.112650671	0.192532964						
1.963	0.057928221	0.026974616	0.02711027	0.057406876	0.111566371	0.193460406						
1.964	0.057918216	0.026971015	0.027158383	0.058291634	0.110481847	0.194409905						
1.965	0.057920298	0.026965511	0.02720742	0.059204532	0.10939787	0.19538031						
1.966	0.057934348	0.026958082	0.027257337	0.060145655	0.108315207	0.196370469						
1.967	0.057960233	0.026948708	0.027308088	0.061115048	0.107234617	0.197379229						
1.968	0.057997799	0.026937377	0.027359628	0.062112724	0.106156853	0.19840544						
1.969	0.058046879	0.026924081	0.027411908	0.063138655	0.105082663	0.199447959						
1.97	0.058107291	0.026908817	0.02746488	0.064192778	0.104012784	0.20050565						
1.971	0.058178836	0.026891588	0.027518492	0.065274991	0.102947948	0.201577393						
1.972	0.0582613	0.0268724	0.027572695	0.066385155	0.101888881	0.20266208						
1.973	0.058354456	0.026851266	0.027627434	0.067523091	0.100836296	0.203758624						
1.974	0.058458063	0.026828204	0.027682656	0.068688582	0.099790903	0.204865958						
1.975	0.058571866	0.026803236	0.027738305	0.069881372	0.098753399	0.205983041						
1.976	0.058695598	0.026776388	0.027794325	0.071101163	0.097724476	0.207108859						
1.977	0.058828978	0.026747691	0.027850657	0.072347622	0.096704814	0.208242427						
1.978	0.058971716	0.026717183	0.027907241	0.073620374	0.095695086	0.209382797						
1.979	0.05912351	0.026684902	0.027964017	0.074919005	0.094695955	0.210529055						
1.98	0.059284045	0.026650893	0.028020921	0.076243062	0.093708074	0.211680324						
1.981	0.059452999	0.026615205	0.028077891	0.077592053	0.092732086	0.212835771						
1.982	0.059630039	0.02657789	0.02813486	0.078965447	0.091768626	0.213994607						
1.983	0.059814824	0.026539004	0.028191762	0.080362675	0.090818318	0.215156088						
1.984	0.060007003	0.026498607	0.028248529	0.081783129	0.089881775	0.216319518						
1.985	0.06020622	0.026456761	0.028305092	0.083226163	0.088959601	0.217484253						
1.986	0.06041211	0.026413532	0.028361379	0.084691096	0.08805239	0.218649702						
1.987	0.060624301	0.026368991	0.028417318	0.086177209	0.087160726	0.219815327						
1.988	0.060842416	0.026323208	0.028472835	0.087683746	0.08628518	0.220980647						
1.989	0.061066072	0.026276258	0.028527857	0.089209918	0.085426316	0.22214524						
1.99	0.061294881	0.026228218	0.028582305	0.090754899	0.084584685	0.223308741						
1.991	0.06152845	0.026179167	0.028636104	0.09231783	0.083760829	0.224470849						
1.992	0.061766385	0.026129187	0.028689174	0.093897822	0.082955278	0.225631321						
1.993	0.062008285	0.02607836	0.028741436	0.09549395	0.082168553	0.22678998						
1.994	0.062253749	0.026026771	0.028792807	0.09710526	0.081401163	0.227946712						
1.995	0.062502372	0.025974506	0.028843207	0.09873077	0.080653607	0.229101466						
